<svg width="512" height="512" viewBox="0 0 512 512" fill="none" xmlns="http://www.w3.org/2000/svg">
<path fill-rule="evenodd" clip-rule="evenodd" d="M273.677 67.3797C278.298 75.5529 275.418 85.9243 267.245 90.5448C178.852 140.515 124.73 202.824 124.728 282.836C124.725 354.607 183.46 414.059 254.93 414.137C286.348 413.601 316.319 400.826 338.463 378.527C360.562 356.274 373.122 326.291 373.488 294.938C371.647 237.744 324.036 188.883 269.408 192.048C268.992 192.072 268.574 192.081 268.157 192.074C217.43 191.273 176.17 233.648 177.167 283.035C180.146 326.219 216.93 361.029 257.783 358.382C257.96 358.371 258.138 358.362 258.316 358.356C292.781 357.209 321.686 327.201 319.182 294.637C316.952 265.635 293.14 243.959 266.571 245.895C245.299 248.083 229.861 266.969 232.752 284.901C232.774 285.038 232.795 285.174 232.813 285.311C234.596 298.389 246.701 306.598 256.627 304.392C265.792 302.356 274.873 308.135 276.909 317.3C278.946 326.466 273.166 335.547 264.001 337.583C231.091 344.895 203.198 318.915 199.154 290.114C192.661 249.06 226.67 215.654 263.422 212.04C263.542 212.028 263.662 212.018 263.782 212.008C311.526 208.337 349.597 246.712 353.082 292.03C357.243 346.157 310.974 390.472 259.717 392.328C197.8 396.183 147.074 344.46 143.215 284.89C143.2 284.661 143.19 284.431 143.184 284.202C141.529 215.685 198.084 157.317 268.067 158.07C344.649 154.016 405.351 221.149 407.484 294.27C407.49 294.486 407.492 294.703 407.49 294.919C407.128 335.259 391.014 373.86 362.588 402.485C334.161 431.11 295.672 447.492 255.336 448.134C255.245 448.136 255.155 448.137 255.064 448.137C164.471 448.134 90.7245 373.143 90.7275 282.835C90.7309 184.511 158.048 113.219 250.512 60.947C258.685 56.3265 269.057 59.2065 273.677 67.3797Z" fill="white"/>
</svg>
